<?xml version="1.0" encoding="UTF-8" standalone="no"?>
<!-- Created with Inkscape (http://www.inkscape.org/) -->

<svg
   id="svg5"
   version="1.1"
   viewBox="0 0 1280 719.99999"
   height="720"
   width="1280"
   inkscape:version="1.2 (dc2aedaf03, 2022-05-15)"
   sodipodi:docname="grid_10px.svg"
   xmlns:inkscape="http://www.inkscape.org/namespaces/inkscape"
   xmlns:sodipodi="http://sodipodi.sourceforge.net/DTD/sodipodi-0.dtd"
   xmlns="http://www.w3.org/2000/svg"
   xmlns:svg="http://www.w3.org/2000/svg">
  <sodipodi:namedview
     id="namedview7"
     pagecolor="#ffffff"
     bordercolor="#666666"
     borderopacity="1.0"
     inkscape:showpageshadow="2"
     inkscape:pageopacity="0.0"
     inkscape:pagecheckerboard="0"
     inkscape:deskcolor="#d1d1d1"
     inkscape:document-units="mm"
     showgrid="false"
     inkscape:zoom="1.0255231"
     inkscape:cx="625.04688"
     inkscape:cy="395.89553"
     inkscape:window-width="1920"
     inkscape:window-height="986"
     inkscape:window-x="-11"
     inkscape:window-y="-11"
     inkscape:window-maximized="1"
     inkscape:current-layer="layer1"
     showguides="false"
     inkscape:lockguides="false" />
  <defs
     id="defs2" />
  <g
     inkscape:label="Layer 1"
     inkscape:groupmode="layer"
     id="layer1">
    <path
       d="m 0.5,0 0,720 m 10,-720 0,720 m 10,-720 0,720 m 10,-720 0,720 m 10,-720 0,720 m 10,-720 0,720 m 10,-720 0,720 m 10,-720 0,720 m 10,-720 0,720 m 10,-720 0,720 m 10,-720 0,720 m 10,-720 0,720 m 10,-720 0,720 m 10,-720 0,720 m 10,-720 0,720 m 10,-720 0,720 m 10,-720 0,720 m 10,-720 0,720 m 10,-720 0,720 m 10,-720 0,720 m 10,-720 0,720 m 10,-720 0,720 m 10,-720 0,720 m 10,-720 0,720 m 10,-720 0,720 m 10,-720 0,720 m 10,-720 0,720 m 10,-720 0,720 m 10,-720 0,720 m 10,-720 0,720 m 10,-720 0,720 m 10,-720 0,720 m 10,-720 0,720 m 10,-720 0,720 m 10,-720 0,720 m 10,-720 0,720 m 10,-720 0,720 m 10,-720 0,720 m 10,-720 0,720 m 10,-720 0,720 m 10,-720 0,720 m 10,-720 0,720 m 10,-720 0,720 m 10,-720 0,720 m 10,-720 0,720 m 10,-720 0,720 m 10,-720 0,720 m 10,-720 0,720 m 10,-720 0,720 m 10,-720 0,720 m 10,-720 0,720 m 10,-720 0,720 m 10,-720 0,720 m 10,-720 0,720 m 10,-720 0,720 m 10,-720 0,720 m 10,-720 0,720 m 10,-720 0,720 m 10,-720 0,720 m 10,-720 0,720 m 10,-720 0,720 m 10,-720 0,720 m 10,-720 0,720 m 10,-720 0,720 m 10,-720 0,720 m 10,-720 0,720 m 10,-720 0,720 m 10,-720 0,720 m 10,-720 0,720 m 10,-720 0,720 m 10,-720 0,720 m 10,-720 0,720 m 10,-720 0,720 m 10,-720 0,720 m 10,-720 0,720 m 10,-720 0,720 m 10,-720 0,720 m 10,-720 0,720 m 10,-720 0,720 m 10,-720 0,720 m 10,-720 0,720 m 10,-720 0,720 m 10,-720 0,720 m 10,-720 0,720 m 10,-720 0,720 m 10,-720 0,720 m 10,-720 0,720 m 10,-720 0,720 m 10,-720 0,720 m 10,-720 0,720 m 10,-720 0,720 m 10,-720 0,720 m 10,-720 0,720 m 10,-720 0,720 m 10,-720 0,720 m 10,-720 0,720 m 10,-720 0,720 m 10,-720 0,720 m 10,-720 0,720 m 10,-720 0,720 m 10,-720 0,720 m 10,-720 0,720 m 10,-720 0,720 m 10,-720 0,720 m 10,-720 0,720 m 10,-720 0,720 m 10,-720 0,720 m 10,-720 0,720 m 10,-720 0,720 m 10,-720 0,720 m 10,-720 0,720 m 10,-720 0,720 m 10,-720 0,720 m 10,-720 0,720 m 10,-720 0,720 m 10,-720 0,720 m 10,-720 0,720 m 10,-720 0,720 m 10,-720 0,720 m 10,-720 0,720 m 10,-720 0,720 m 10,-720 0,720 m 10,-720 0,720 m 10,-720 0,720 m 10,-720 0,720 m 10,-720 0,720 m 10,-720 0,720 m 10,-720 0,720 M 0.5,0.5 l 1280,0 m -1280,10 1280,0 m -1280,10 1280,0 m -1280,10 1280,0 m -1280,10 1280,0 m -1280,10 1280,0 m -1280,10 1280,0 m -1280,10 1280,0 m -1280,10 1280,0 m -1280,10 1280,0 m -1280,10 1280,0 m -1280,10 1280,0 m -1280,10 1280,0 m -1280,10 1280,0 m -1280,10 1280,0 m -1280,10 1280,0 m -1280,10 1280,0 m -1280,10 1280,0 m -1280,10 1280,0 m -1280,10 1280,0 m -1280,10 1280,0 m -1280,10 1280,0 m -1280,10 1280,0 m -1280,10 1280,0 m -1280,10 1280,0 m -1280,10 1280,0 m -1280,10 1280,0 m -1280,10 1280,0 m -1280,10 1280,0 m -1280,10 1280,0 m -1280,10 1280,0 m -1280,10 1280,0 m -1280,10 1280,0 m -1280,10 1280,0 m -1280,10 1280,0 m -1280,10 1280,0 m -1280,10 1280,0 m -1280,10 1280,0 m -1280,10 1280,0 m -1280,10 1280,0 m -1280,10 1280,0 m -1280,10 1280,0 m -1280,10 1280,0 m -1280,10 1280,0 m -1280,10 1280,0 m -1280,10 1280,0 m -1280,10 1280,0 m -1280,10 1280,0 m -1280,10 1280,0 m -1280,10 1280,0 m -1280,10 1280,0 m -1280,10 1280,0 m -1280,10 1280,0 m -1280,10 1280,0 m -1280,10 1280,0 m -1280,10 1280,0 m -1280,10 1280,0 m -1280,10 1280,0 m -1280,10 1280,0 m -1280,10 1280,0 m -1280,10 1280,0 m -1280,10 1280,0 m -1280,10 1280,0 m -1280,10 1280,0 m -1280,10 1280,0 m -1280,10 1280,0 m -1280,10 1280,0 m -1280,10 1280,0 m -1280,10 1280,0 m -1280,10 1280,0 m -1280,10 1280,0 m -1280,10 1280,0"
       style="fill:none;stroke:#cccccc;stroke-width:1px"
       id="path1421" />
  </g>
</svg>
